<svg xmlns="http://www.w3.org/2000/svg" xmlns:xlink="http://www.w3.org/1999/xlink" width="167.087pt" height="242.667pt" viewBox="0 0 167.0869141 242.6669922"><defs><radialGradient xlink:href="#a" cx="-.158" cy="-8.835" fx="-.158" fy="-8.835" r="8" gradientTransform="matrix(-1.584 -.023 .031 -2.478 -.249 -26.714)" gradientUnits="userSpaceOnUse"/><linearGradient id="a"><stop offset="0"/><stop offset="1" stop-opacity=".649"/></linearGradient><radialGradient xlink:href="#a" cx="-.158" cy="-8.835" fx="-.158" fy="-8.835" r="8" gradientTransform="matrix(-1.584 -.023 .031 -2.478 -.249 -26.714)" gradientUnits="userSpaceOnUse"/><linearGradient><stop offset="0"/><stop offset="1" stop-opacity=".649"/></linearGradient><radialGradient r="81.903" fy="509.476" fx="168.025" cy="509.476" cx="168.025" gradientTransform="matrix(1.257 -.777 .337 .536 -221.202 359.243)" gradientUnits="userSpaceOnUse" xlink:href="#b"/><linearGradient id="b"><stop offset="0" stop-color="#fff" stop-opacity=".435"/><stop offset="1" stop-opacity="0"/></linearGradient><radialGradient xlink:href="#c" gradientUnits="userSpaceOnUse" gradientTransform="matrix(1.257 -.777 .337 .536 -221.202 359.243)" cx="168.025" cy="509.476" fx="168.025" fy="509.476" r="81.903"/><linearGradient id="c"><stop offset="0" stop-color="#fff" stop-opacity=".489"/><stop offset="1" stop-opacity="0"/></linearGradient><radialGradient xlink:href="#d" gradientUnits="userSpaceOnUse" gradientTransform="matrix(1.257 -.777 .337 .536 -221.202 359.243)" cx="168.025" cy="509.476" fx="168.025" fy="509.476" r="81.903"/><linearGradient id="d"><stop offset="0" stop-color="#fff" stop-opacity=".237"/><stop offset="1" stop-opacity="0"/></linearGradient><radialGradient xlink:href="#e" cx="-.206" cy="-4.579" fx="-.206" fy="-4.579" r="8" gradientTransform="matrix(-1 0 0 -1.72 -.412 -13.027)" gradientUnits="userSpaceOnUse"/><linearGradient id="e"><stop offset="0" stop-color="#df0000"/><stop offset="1" stop-color="#df0000" stop-opacity=".672"/></linearGradient><radialGradient r="81.903" fy="511.223" fx="171.487" cy="511.223" cx="171.487" gradientTransform="matrix(1.153 -.674 .395 .675 -233.633 270.401)" gradientUnits="userSpaceOnUse" xlink:href="#f"/><linearGradient id="f"><stop offset="0" stop-color="#fff" stop-opacity=".313"/><stop offset="1" stop-opacity="0"/></linearGradient><radialGradient r="81.903" fy="492.632" fx="159.354" cy="492.632" cx="159.354" gradientTransform="matrix(1.089 -.715 .446 .656 -244.933 290.918)" gradientUnits="userSpaceOnUse" xlink:href="#g"/><linearGradient id="g"><stop offset="0" stop-color="#fff" stop-opacity=".29"/><stop offset="1" stop-opacity="0"/></linearGradient><radialGradient r="81.903" fy="492.632" fx="159.354" cy="492.632" cx="159.354" gradientTransform="matrix(1.089 -.715 .446 .656 -244.933 290.918)" gradientUnits="userSpaceOnUse" xlink:href="#g"/></defs><g stroke="#000"><path d="M166.837 235.548c0 3.777-3.087 6.87-6.87 6.87H7.11c-3.774 0-6.86-3.093-6.86-6.87V7.12C.25 3.343 3.336.25 7.11.25h152.856c3.784 0 6.87 3.093 6.87 6.87v228.428z" fill="#fff" stroke-width=".5"/></g><text style="line-height:125%" x="-.987" y="29.203" font-size="32" letter-spacing="0" word-spacing="0" fill="#df0000" font-family="Bitstream Vera Sans"><tspan x="-.987" y="29.203" style="-inkscape-font-specification:Arial" fill="#df0000" font-family="Arial">1</tspan></text><g fill="#df0000"><path d="M23.332 32.282c-5.43 0-6.154 5.45-6.154 5.45s-.725-5.45-6.155-5.45c-3.8 0-7.24 2.443-7.24 7.052 0 6.09 11.016 12.213 13.395 21.154 2.263-8.934 13.394-15.065 13.394-21.154 0-4.61-3.44-7.052-7.24-7.052z"/></g><g fill="#df0000"><path d="M144 209.246c5.43 0 6.156-5.448 6.156-5.448s.725 5.448 6.155 5.448c3.8 0 7.24-2.443 7.24-7.05 0-6.09-11.015-12.214-13.394-21.156-2.264 8.934-13.394 15.065-13.394 21.155 0 4.608 3.44 7.05 7.24 7.05z"/></g><g fill="#df0000"><path d="M64.728 6.596c-9.012 0-10.216 9.043-10.216 9.043S53.31 6.595 44.297 6.595c-6.31 0-12.017 4.055-12.017 11.704 0 10.107 18.284 20.27 22.232 35.112C58.27 38.582 76.744 28.407 76.744 18.3c0-7.65-5.708-11.704-12.016-11.704z"/></g><g fill="#df0000"><path d="M44.297 236.214c9.012 0 10.215-9.043 10.215-9.043s1.204 9.044 10.216 9.044c6.308 0 12.016-4.055 12.016-11.704 0-10.107-18.283-20.27-22.232-35.112-3.757 14.83-22.232 25.005-22.232 35.112 0 7.65 5.708 11.704 12.017 11.704z"/></g><g fill="#df0000"><path d="M64.728 71.83c-9.012 0-10.216 9.044-10.216 9.044S53.31 71.83 44.297 71.83c-6.31 0-12.017 4.055-12.017 11.705 0 10.107 18.284 20.27 22.232 35.112 3.758-14.83 22.232-25.005 22.232-35.112 0-7.65-5.708-11.704-12.016-11.704z"/></g><g fill="#df0000"><path d="M44.297 168.764c9.012 0 10.215-9.043 10.215-9.043s1.204 9.044 10.216 9.044c6.308 0 12.016-4.055 12.016-11.704 0-10.107-18.283-20.27-22.232-35.112-3.757 14.83-22.232 25.005-22.232 35.112 0 7.65 5.708 11.704 12.017 11.704z"/></g><g fill="#df0000"><path d="M122.207 7.195c-9.013 0-10.216 9.043-10.216 9.043s-1.202-9.043-10.215-9.043c-6.308 0-12.016 4.054-12.016 11.704 0 10.106 18.282 20.27 22.23 35.11 3.758-14.828 22.233-25.004 22.233-35.11 0-7.65-5.708-11.705-12.016-11.705z"/></g><g fill="#df0000"><path d="M101.775 236.813c9.013 0 10.216-9.043 10.216-9.043s1.204 9.043 10.217 9.043c6.308 0 12.016-4.055 12.016-11.704 0-10.108-18.284-20.272-22.232-35.113-3.756 14.83-22.23 25.005-22.23 35.112 0 7.648 5.707 11.703 12.015 11.703z"/></g><g fill="#df0000"><path d="M122.207 72.43c-9.013 0-10.216 9.043-10.216 9.043s-1.202-9.044-10.215-9.044c-6.308 0-12.016 4.054-12.016 11.703 0 10.107 18.282 20.27 22.23 35.112 3.758-14.828 22.233-25.005 22.233-35.112 0-7.65-5.708-11.704-12.016-11.704z"/></g><g fill="#df0000"><path d="M101.775 169.363c9.013 0 10.216-9.044 10.216-9.044s1.204 9.043 10.217 9.043c6.308 0 12.016-4.055 12.016-11.704 0-10.108-18.284-20.272-22.232-35.113-3.756 14.83-22.23 25.005-22.23 35.112 0 7.648 5.707 11.703 12.015 11.703z"/></g><g fill="#df0000"><path d="M93.43 39.297c-9.013 0-10.217 9.043-10.217 9.043s-1.203-9.043-10.215-9.043c-6.31 0-12.017 4.054-12.017 11.704 0 10.108 18.285 20.27 22.233 35.113C86.97 71.283 105.445 61.108 105.445 51c0-7.65-5.708-11.703-12.016-11.703z"/></g><g fill="#df0000"><path d="M72.533 203.11c9.012 0 10.216-9.042 10.216-9.042s1.202 9.043 10.214 9.043c6.308 0 12.017-4.054 12.017-11.703 0-10.107-18.283-20.27-22.23-35.112-3.76 14.83-22.234 25.005-22.234 35.112 0 7.65 5.71 11.704 12.017 11.704z"/></g><text style="line-height:125%" x="12.287" y="28.96" font-size="32" letter-spacing="0" word-spacing="0" fill="#df0000" font-family="Bitstream Vera Sans"><tspan x="12.287" y="28.96" style="-inkscape-font-specification:Arial" fill="#df0000" font-family="Arial">0</tspan></text><text style="line-height:125%" x="-167.598" y="-212.06" transform="scale(-1)" font-size="32" letter-spacing="0" word-spacing="0" fill="#df0000" font-family="Bitstream Vera Sans"><tspan x="-167.598" y="-212.06" style="-inkscape-font-specification:Arial" fill="#df0000" font-family="Arial">1</tspan></text><text style="line-height:125%" x="-154.324" y="-212.302" transform="scale(-1)" font-size="32" letter-spacing="0" word-spacing="0" fill="#df0000" font-family="Bitstream Vera Sans"><tspan x="-154.324" y="-212.302" style="-inkscape-font-specification:Arial" fill="#df0000" font-family="Arial">0</tspan></text></svg>