<svg xmlns="http://www.w3.org/2000/svg" xmlns:xlink="http://www.w3.org/1999/xlink" width="167.087pt" height="242.667pt" viewBox="0 0 167.0869141 242.6669922"><defs><radialGradient xlink:href="#a" cx="-.158" cy="-8.835" fx="-.158" fy="-8.835" r="8" gradientTransform="matrix(-1.584 -.023 .031 -2.478 -.249 -26.714)" gradientUnits="userSpaceOnUse"/><linearGradient id="a"><stop offset="0"/><stop offset="1" stop-opacity=".649"/></linearGradient><radialGradient xlink:href="#a" cx="-.158" cy="-8.835" fx="-.158" fy="-8.835" r="8" gradientTransform="matrix(-1.584 -.023 .031 -2.478 -.249 -26.714)" gradientUnits="userSpaceOnUse"/><linearGradient><stop offset="0"/><stop offset="1" stop-opacity=".649"/></linearGradient><radialGradient r="81.903" fy="509.476" fx="168.025" cy="509.476" cx="168.025" gradientTransform="matrix(1.257 -.777 .337 .536 -221.202 359.243)" gradientUnits="userSpaceOnUse" xlink:href="#b"/><linearGradient id="b"><stop offset="0" stop-color="#fff" stop-opacity=".435"/><stop offset="1" stop-opacity="0"/></linearGradient><radialGradient xlink:href="#c" gradientUnits="userSpaceOnUse" gradientTransform="matrix(1.257 -.777 .337 .536 -221.202 359.243)" cx="168.025" cy="509.476" fx="168.025" fy="509.476" r="81.903"/><linearGradient id="c"><stop offset="0" stop-color="#fff" stop-opacity=".489"/><stop offset="1" stop-opacity="0"/></linearGradient><radialGradient xlink:href="#d" gradientUnits="userSpaceOnUse" gradientTransform="matrix(1.257 -.777 .337 .536 -221.202 359.243)" cx="168.025" cy="509.476" fx="168.025" fy="509.476" r="81.903"/><linearGradient id="d"><stop offset="0" stop-color="#fff" stop-opacity=".237"/><stop offset="1" stop-opacity="0"/></linearGradient><radialGradient xlink:href="#e" cx="-.206" cy="-4.579" fx="-.206" fy="-4.579" r="8" gradientTransform="matrix(-1 0 0 -1.72 -.412 -13.027)" gradientUnits="userSpaceOnUse"/><linearGradient id="e"><stop offset="0" stop-color="#df0000"/><stop offset="1" stop-color="#df0000" stop-opacity=".672"/></linearGradient><radialGradient r="81.903" fy="511.223" fx="171.487" cy="511.223" cx="171.487" gradientTransform="matrix(1.153 -.674 .395 .675 -233.633 270.401)" gradientUnits="userSpaceOnUse" xlink:href="#f"/><linearGradient id="f"><stop offset="0" stop-color="#fff" stop-opacity=".313"/><stop offset="1" stop-opacity="0"/></linearGradient><radialGradient r="81.903" fy="492.632" fx="159.354" cy="492.632" cx="159.354" gradientTransform="matrix(1.089 -.715 .446 .656 -244.933 290.918)" gradientUnits="userSpaceOnUse" xlink:href="#g"/><linearGradient id="g"><stop offset="0" stop-color="#fff" stop-opacity=".29"/><stop offset="1" stop-opacity="0"/></linearGradient><radialGradient r="81.903" fy="492.632" fx="159.354" cy="492.632" cx="159.354" gradientTransform="matrix(1.089 -.715 .446 .656 -244.933 290.918)" gradientUnits="userSpaceOnUse" xlink:href="#g"/></defs><g stroke="#000"><path d="M166.837 235.548c0 3.777-3.087 6.87-6.87 6.87H7.11c-3.774 0-6.86-3.093-6.86-6.87V7.12C.25 3.343 3.336.25 7.11.25h152.856c3.784 0 6.87 3.093 6.87 6.87v228.428z" fill="#fff" stroke-width=".5"/></g><text style="line-height:125%" x="8.775" y="28.013" font-size="32" letter-spacing="0" word-spacing="0" fill="#df0000" font-family="Bitstream Vera Sans"><tspan x="8.775" y="28.013" style="-inkscape-font-specification:Arial" fill="#df0000" font-family="Arial">3</tspan></text><g fill="#df0000"><path d="M23.332 32.282c-5.43 0-6.154 5.45-6.154 5.45s-.725-5.45-6.155-5.45c-3.8 0-7.24 2.443-7.24 7.052 0 6.09 11.016 12.213 13.395 21.154 2.263-8.934 13.394-15.065 13.394-21.154 0-4.61-3.44-7.052-7.24-7.052z"/></g><text style="line-height:125%" x="-158.818" y="-213.515" transform="scale(-1)" font-size="32" letter-spacing="0" word-spacing="0" fill="#df0000" font-family="Bitstream Vera Sans"><tspan x="-158.818" y="-213.515" style="-inkscape-font-specification:Arial" fill="#df0000" font-family="Arial">3</tspan></text><g fill="#df0000"><path d="M144 209.246c5.43 0 6.156-5.448 6.156-5.448s.725 5.448 6.155 5.448c3.8 0 7.24-2.443 7.24-7.05 0-6.09-11.015-12.214-13.394-21.156-2.264 8.934-13.394 15.065-13.394 21.155 0 4.608 3.44 7.05 7.24 7.05z"/></g><g fill="#df0000"><path d="M93.528 24.196c-9.012 0-10.216 9.043-10.216 9.043s-1.203-9.044-10.215-9.044c-6.31 0-12.017 4.055-12.017 11.704 0 10.107 18.284 20.27 22.232 35.112 3.758-14.83 22.232-25.005 22.232-35.112 0-7.65-5.708-11.704-12.016-11.704z"/></g><g fill="#df0000"><path d="M73.097 215.414c9.012 0 10.215-9.043 10.215-9.043s1.204 9.044 10.216 9.044c6.308 0 12.016-4.055 12.016-11.704 0-10.107-18.283-20.27-22.232-35.112-3.757 14.83-22.232 25.005-22.232 35.112 0 7.65 5.708 11.704 12.017 11.704z"/></g><g fill="#df0000"><path d="M93.528 95.497c-9.012 0-10.216 9.043-10.216 9.043s-1.203-9.043-10.215-9.043c-6.31 0-12.017 4.054-12.017 11.704 0 10.108 18.284 20.27 22.232 35.113 3.758-14.83 22.232-25.005 22.232-35.112 0-7.65-5.708-11.703-12.016-11.703z"/></g></svg>