<svg xmlns="http://www.w3.org/2000/svg" xmlns:xlink="http://www.w3.org/1999/xlink" width="167.087pt" height="242.667pt" viewBox="0 0 167.0869141 242.6669922"><defs><radialGradient xlink:href="#a" cx="-.158" cy="-8.835" fx="-.158" fy="-8.835" r="8" gradientTransform="matrix(-1.584 -.023 .031 -2.478 -.249 -26.714)" gradientUnits="userSpaceOnUse"/><linearGradient id="a"><stop offset="0"/><stop offset="1" stop-opacity=".649"/></linearGradient><radialGradient xlink:href="#a" cx="-.158" cy="-8.835" fx="-.158" fy="-8.835" r="8" gradientTransform="matrix(-1.584 -.023 .031 -2.478 -.249 -26.714)" gradientUnits="userSpaceOnUse"/><linearGradient><stop offset="0"/><stop offset="1" stop-opacity=".649"/></linearGradient><radialGradient r="81.903" fy="509.476" fx="168.025" cy="509.476" cx="168.025" gradientTransform="matrix(1.257 -.777 .337 .536 -221.202 359.243)" gradientUnits="userSpaceOnUse" xlink:href="#b"/><linearGradient id="b"><stop offset="0" stop-color="#fff" stop-opacity=".435"/><stop offset="1" stop-opacity="0"/></linearGradient><radialGradient xlink:href="#c" gradientUnits="userSpaceOnUse" gradientTransform="matrix(1.257 -.777 .337 .536 -221.202 359.243)" cx="168.025" cy="509.476" fx="168.025" fy="509.476" r="81.903"/><linearGradient id="c"><stop offset="0" stop-color="#fff" stop-opacity=".489"/><stop offset="1" stop-opacity="0"/></linearGradient><radialGradient xlink:href="#d" gradientUnits="userSpaceOnUse" gradientTransform="matrix(1.257 -.777 .337 .536 -221.202 359.243)" cx="168.025" cy="509.476" fx="168.025" fy="509.476" r="81.903"/><linearGradient id="d"><stop offset="0" stop-color="#fff" stop-opacity=".237"/><stop offset="1" stop-opacity="0"/></linearGradient><linearGradient><stop offset="0" stop-color="#df0000"/><stop offset="1" stop-color="#df0000" stop-opacity=".672"/></linearGradient><linearGradient><stop offset="0" stop-color="#fff" stop-opacity=".313"/><stop offset="1" stop-opacity="0"/></linearGradient><radialGradient r="81.903" fy="492.632" fx="159.354" cy="492.632" cx="159.354" gradientTransform="matrix(1.089 -.715 .446 .656 -244.933 290.918)" gradientUnits="userSpaceOnUse" xlink:href="#e"/><linearGradient id="e"><stop offset="0" stop-color="#fff" stop-opacity=".29"/><stop offset="1" stop-opacity="0"/></linearGradient><linearGradient id="g"><stop offset="0" stop-color="#df0000"/><stop offset="1" stop-color="#df0000" stop-opacity=".641"/></linearGradient><linearGradient id="f"><stop offset="0" stop-color="#fff" stop-opacity=".435"/><stop offset="1" stop-opacity="0"/></linearGradient><radialGradient r="81.903" fy="511.223" fx="171.487" cy="511.223" cx="171.487" gradientTransform="matrix(1.153 -.674 .395 .675 -233.633 270.401)" gradientUnits="userSpaceOnUse" xlink:href="#f"/><radialGradient xlink:href="#g" gradientUnits="userSpaceOnUse" gradientTransform="matrix(-1.122 .006 -.009 -1.85 -.029 -10.228)" cx="0" cy="-3.234" fx="0" fy="-3.234" r="8"/></defs><g stroke="#000"><path d="M166.837 235.548c0 3.777-3.087 6.87-6.87 6.87H7.11c-3.774 0-6.86-3.093-6.86-6.87V7.12C.25 3.343 3.336.25 7.11.25h152.856c3.784 0 6.87 3.093 6.87 6.87v228.428z" fill="#fff" stroke-width=".5"/></g><text style="line-height:125%" x="7.846" y="26.413" font-size="32" letter-spacing="0" word-spacing="0" fill="#df0000" font-family="Bitstream Vera Sans"><tspan x="7.846" y="26.413" style="-inkscape-font-specification:Arial" fill="#df0000" font-family="Arial">8</tspan></text><text style="line-height:125%" x="-159.488" y="-216.715" transform="scale(-1)" font-size="32" letter-spacing="0" word-spacing="0" fill="#df0000" font-family="Bitstream Vera Sans"><tspan x="-159.488" y="-216.715" style="-inkscape-font-specification:Arial" fill="#df0000" font-family="Arial">8</tspan></text><g><path d="M21.758 37.257c-3.126-4.23-4.79-8.528-4.79-8.528s-1.663 4.297-4.79 8.527c-3.128 4.23-7.025 6.98-7.025 6.98s3.897 2.748 7.025 6.98c3.127 4.228 4.79 8.527 4.79 8.527s1.664-4.3 4.79-8.527c3.128-4.232 7.025-6.98 7.025-6.98s-3.897-2.75-7.025-6.98z" fill="#df0000"/></g><g><path d="M155.41 191.525c-3.126-4.23-4.79-8.53-4.79-8.53s-1.663 4.3-4.79 8.53c-3.127 4.228-7.024 6.978-7.024 6.978s3.897 2.75 7.025 6.98c3.127 4.23 4.79 8.528 4.79 8.528s1.664-4.298 4.79-8.526c3.13-4.232 7.026-6.98 7.026-6.98s-3.897-2.75-7.025-6.98z" fill="#df0000"/></g><g><path d="M120.123 181.39c-5.48-7.41-8.394-14.945-8.394-14.945s-2.917 7.534-8.396 14.946c-5.482 7.412-12.312 12.232-12.312 12.232s6.83 4.818 12.312 12.233c5.48 7.41 8.395 14.944 8.395 14.944s2.914-7.535 8.393-14.945c5.482-7.415 12.312-12.233 12.312-12.233s-6.83-4.82-12.312-12.23z" fill="#df0000"/></g><g><path d="M120.123 36.99c-5.48-7.414-8.394-14.948-8.394-14.948s-2.917 7.534-8.396 14.947c-5.482 7.41-12.312 12.23-12.312 12.23s6.83 4.817 12.312 12.233c5.48 7.41 8.395 14.944 8.395 14.944s2.914-7.534 8.393-14.944c5.482-7.416 12.312-12.233 12.312-12.233s-6.83-4.82-12.312-12.23z" fill="#df0000"/></g><g><path d="M120.123 108.29c-5.48-7.413-8.394-14.947-8.394-14.947s-2.917 7.534-8.396 14.947c-5.482 7.41-12.312 12.23-12.312 12.23s6.83 4.818 12.312 12.233c5.48 7.41 8.395 14.944 8.395 14.944s2.914-7.533 8.393-14.944c5.482-7.415 12.312-12.233 12.312-12.233s-6.83-4.82-12.312-12.23z" fill="#df0000"/></g><g><path d="M62.808 181.51c-5.48-7.413-8.395-14.947-8.395-14.947s-2.915 7.534-8.394 14.947c-5.483 7.41-12.313 12.23-12.313 12.23s6.83 4.818 12.312 12.233c5.478 7.41 8.393 14.944 8.393 14.944s2.916-7.534 8.395-14.944c5.482-7.415 12.312-12.233 12.312-12.233s-6.83-4.82-12.312-12.23z" fill="#df0000"/></g><g><path d="M62.808 37.107c-5.48-7.413-8.395-14.946-8.395-14.946s-2.915 7.534-8.394 14.947c-5.483 7.41-12.313 12.23-12.313 12.23s6.83 4.818 12.312 12.234c5.478 7.41 8.393 14.945 8.393 14.945s2.916-7.534 8.395-14.944C68.29 54.156 75.12 49.34 75.12 49.34s-6.83-4.82-12.312-12.23z" fill="#df0000"/></g><g><path d="M62.808 108.408c-5.48-7.413-8.395-14.947-8.395-14.947s-2.915 7.535-8.394 14.948c-5.483 7.41-12.313 12.23-12.313 12.23s6.83 4.818 12.312 12.234c5.478 7.41 8.393 14.944 8.393 14.944s2.916-7.534 8.395-14.944c5.482-7.416 12.312-12.234 12.312-12.234s-6.83-4.82-12.312-12.23z" fill="#df0000"/></g><g><path d="M91.608 73.307c-5.48-7.413-8.395-14.946-8.395-14.946s-2.915 7.534-8.394 14.947c-5.483 7.41-12.313 12.23-12.313 12.23s6.83 4.818 12.312 12.234c5.478 7.41 8.393 14.945 8.393 14.945s2.916-7.534 8.395-14.944C97.09 90.356 103.92 85.54 103.92 85.54s-6.83-4.82-12.312-12.23z" fill="#df0000"/></g><g><path d="M91.608 144.693c-5.48-7.413-8.395-14.946-8.395-14.946s-2.915 7.533-8.394 14.946c-5.483 7.41-12.313 12.23-12.313 12.23s6.83 4.818 12.312 12.234c5.478 7.41 8.393 14.944 8.393 14.944s2.916-7.533 8.395-14.943c5.482-7.416 12.312-12.233 12.312-12.233s-6.83-4.82-12.312-12.23z" fill="#df0000"/></g></svg>