<svg xmlns="http://www.w3.org/2000/svg" xmlns:xlink="http://www.w3.org/1999/xlink" width="167.087pt" height="242.667pt" viewBox="0 0 167.0869141 242.6669922"><defs><radialGradient xlink:href="#a" cx="48.231" cy="18.138" fx="48.231" fy="18.138" r="9.5" gradientUnits="userSpaceOnUse" gradientTransform="matrix(-1.561 .018 -.027 -2.291 123.984 58.809)"/><linearGradient id="a"><stop offset="0"/><stop offset="1" stop-opacity=".656"/></linearGradient><radialGradient xlink:href="#b" cx="171.487" cy="511.223" fx="171.487" fy="511.223" r="81.903" gradientTransform="matrix(1.153 -.674 .395 .675 -233.633 270.401)" gradientUnits="userSpaceOnUse"/><linearGradient id="b"><stop offset="0" stop-color="#fff" stop-opacity=".534"/><stop offset="1" stop-opacity="0"/></linearGradient><radialGradient r="81.903" fy="511.223" fx="171.487" cy="511.223" cx="171.487" gradientTransform="matrix(1.153 -.674 .395 .675 -233.633 270.401)" gradientUnits="userSpaceOnUse" xlink:href="#c"/><linearGradient id="c"><stop offset="0" stop-color="#fff" stop-opacity=".519"/><stop offset="1" stop-opacity="0"/></linearGradient><radialGradient r="81.903" fy="461.841" fx="181.694" cy="461.841" cx="181.694" gradientTransform="matrix(1.153 -.674 .395 .675 -233.633 270.401)" gradientUnits="userSpaceOnUse" xlink:href="#d"/><linearGradient id="d"><stop offset="0" stop-color="#fff" stop-opacity=".702"/><stop offset="1" stop-opacity="0"/></linearGradient></defs><g stroke="#000"><path d="M166.837 235.548c0 3.777-3.087 6.87-6.87 6.87H7.11c-3.774 0-6.86-3.093-6.86-6.87V7.12C.25 3.343 3.336.25 7.11.25h152.856c3.784 0 6.87 3.093 6.87 6.87v228.428z" fill="#fff" stroke-width=".5"/></g><text style="line-height:125%" x="8.311" y="27.548" font-size="32" letter-spacing="0" word-spacing="0" font-family="Bitstream Vera Sans"><tspan x="8.311" y="27.548" style="-inkscape-font-specification:Arial" font-family="Arial">8</tspan></text><g><path d="M20.69 43.74s3.53-2.823 3.53-6.736c0-2.29-2.035-6.094-6.737-6.094s-6.736 3.804-6.736 6.094c0 3.913 3.53 6.736 3.53 6.736-3.92-3.053-10.907-.97-10.907 5.133 0 3.054 2.496 6.415 6.415 6.415 4.702 0 6.736-5.133 6.736-5.133s.598 5.85-2.886 8.982h7.7c-3.485-3.13-2.888-8.982-2.888-8.982s2.034 5.133 6.736 5.133c3.92 0 6.415-3.362 6.415-6.415 0-6.102-6.987-8.186-10.906-5.133z"/></g><text style="line-height:125%" x="-158.864" y="-214.467" transform="scale(-1)" font-size="32" letter-spacing="0" word-spacing="0" font-family="Bitstream Vera Sans"><tspan x="-158.864" y="-214.467" style="-inkscape-font-specification:Arial" font-family="Arial">8</tspan></text><g><path d="M146.484 198.74s-3.53 2.823-3.53 6.736c0 2.29 2.035 6.094 6.737 6.094 4.703 0 6.737-3.804 6.737-6.094 0-3.913-3.528-6.736-3.528-6.736 3.918 3.053 10.905.97 10.905-5.133 0-3.054-2.496-6.415-6.415-6.415-4.702 0-6.736 5.133-6.736 5.133s-.597-5.85 2.886-8.982h-7.698c3.484 3.13 2.886 8.982 2.886 8.982s-2.033-5.133-6.736-5.133c-3.92 0-6.415 3.362-6.415 6.415 0 6.102 6.987 8.186 10.907 5.133z"/></g><g><path d="M62.373 29.9s5.967-4.774 5.967-11.392C68.34 14.634 64.9 8.2 56.948 8.2S45.556 14.637 45.556 18.51c0 6.618 5.968 11.392 5.968 11.392-6.63-5.163-18.445-1.638-18.445 8.68 0 5.167 4.22 10.85 10.848 10.85 7.952 0 11.392-8.68 11.392-8.68s1.01 9.894-4.882 15.19h13.02c-5.892-5.294-4.882-15.19-4.882-15.19s3.44 8.68 11.392 8.68c6.63 0 10.85-5.686 10.85-10.85 0-10.318-11.817-13.843-18.445-8.68z"/></g><g><path d="M51.568 212.244s-5.967 4.774-5.967 11.392c0 3.875 3.44 10.307 11.393 10.307 7.952 0 11.392-6.435 11.392-10.307 0-6.618-5.967-11.392-5.967-11.392 6.628 5.163 18.444 1.638 18.444-8.68 0-5.167-4.22-10.85-10.85-10.85-7.95 0-11.39 8.68-11.39 8.68s-1.01-9.894 4.88-15.19h-13.02c5.893 5.294 4.883 15.19 4.883 15.19s-3.44-8.68-11.392-8.68c-6.63 0-10.85 5.686-10.85 10.85 0 10.318 11.817 13.843 18.445 8.68z"/></g><g><path d="M62.373 120.4s5.967-4.773 5.967-11.39c0-3.876-3.44-10.308-11.392-10.308s-11.392 6.435-11.392 10.307c0 6.617 5.968 11.39 5.968 11.39-6.63-5.163-18.445-1.637-18.445 8.682 0 5.166 4.22 10.85 10.848 10.85 7.952 0 11.392-8.682 11.392-8.682s1.01 9.895-4.882 15.19h13.02c-5.892-5.293-4.882-15.19-4.882-15.19s3.44 8.68 11.392 8.68c6.63 0 10.85-5.685 10.85-10.848 0-10.32-11.817-13.845-18.445-8.68z"/></g><g><path d="M115.158 29.726s5.967-4.774 5.967-11.392c0-3.874-3.44-10.306-11.392-10.306S98.34 14.462 98.34 18.334c0 6.618 5.97 11.392 5.97 11.392-6.63-5.163-18.446-1.638-18.446 8.68 0 5.167 4.22 10.85 10.85 10.85 7.95 0 11.39-8.68 11.39-8.68s1.01 9.894-4.88 15.19h13.02c-5.893-5.293-4.883-15.19-4.883-15.19s3.44 8.68 11.393 8.68c6.63 0 10.85-5.685 10.85-10.85 0-10.318-11.817-13.843-18.445-8.68z"/></g><g><path d="M104.353 212.07s-5.967 4.774-5.967 11.392c0 3.875 3.44 10.307 11.392 10.307s11.392-6.436 11.392-10.308c0-6.618-5.967-11.392-5.967-11.392 6.628 5.164 18.445 1.64 18.445-8.68 0-5.166-4.222-10.85-10.85-10.85-7.952 0-11.392 8.68-11.392 8.68s-1.01-9.893 4.882-15.19h-13.02c5.892 5.294 4.882 15.19 4.882 15.19s-3.44-8.68-11.392-8.68c-6.63 0-10.85 5.686-10.85 10.85 0 10.32 11.817 13.844 18.445 8.68z"/></g><g><path d="M115.158 120.227s5.967-4.774 5.967-11.392c0-3.874-3.44-10.307-11.392-10.307s-11.392 6.435-11.392 10.307c0 6.618 5.97 11.392 5.97 11.392-6.63-5.163-18.446-1.638-18.446 8.68 0 5.167 4.22 10.85 10.85 10.85 7.95 0 11.39-8.68 11.39-8.68s1.01 9.894-4.88 15.19h13.02c-5.893-5.294-4.883-15.19-4.883-15.19s3.44 8.68 11.393 8.68c6.63 0 10.85-5.686 10.85-10.85 0-10.318-11.817-13.843-18.445-8.68z"/></g><g><path d="M88.306 75.653s5.967-4.773 5.967-11.392c0-3.873-3.44-10.305-11.392-10.305-7.95 0-11.39 6.435-11.39 10.306 0 6.62 5.966 11.393 5.966 11.393-6.628-5.163-18.445-1.638-18.445 8.68 0 5.167 4.223 10.85 10.85 10.85 7.953 0 11.393-8.68 11.393-8.68s1.01 9.894-4.882 15.19h13.02c-5.89-5.293-4.88-15.19-4.88-15.19s3.44 8.68 11.39 8.68c6.632 0 10.85-5.685 10.85-10.85 0-10.318-11.816-13.843-18.444-8.68z"/></g><g><path d="M78.07 169.56s-5.967 4.775-5.967 11.393c0 3.875 3.44 10.307 11.392 10.307s11.392-6.435 11.392-10.307c0-6.618-5.968-11.392-5.968-11.392 6.628 5.164 18.444 1.64 18.444-8.68 0-5.166-4.22-10.85-10.85-10.85-7.95 0-11.39 8.682-11.39 8.682s-1.01-9.895 4.88-15.19h-13.02c5.893 5.293 4.883 15.19 4.883 15.19s-3.44-8.68-11.392-8.68c-6.63 0-10.85 5.685-10.85 10.848 0 10.32 11.817 13.844 18.445 8.68z"/></g></svg>