<svg xmlns="http://www.w3.org/2000/svg" xmlns:xlink="http://www.w3.org/1999/xlink" width="167.087pt" height="242.667pt" viewBox="0 0 167.0869141 242.6669922"><defs><radialGradient xlink:href="#a" id="e" cx="-.158" cy="-8.835" fx="-.158" fy="-8.835" r="8" gradientTransform="matrix(-1.584 -.023 .031 -2.478 -.249 -26.714)" gradientUnits="userSpaceOnUse"/><linearGradient id="a"><stop offset="0"/><stop offset="1" stop-opacity=".649"/></linearGradient><radialGradient r="8" fy="-8.835" fx="-.158" cy="-8.835" cx="-.158" gradientTransform="matrix(-1.584 -.023 .031 -2.478 -.249 -26.714)" gradientUnits="userSpaceOnUse" id="f" xlink:href="#a"/><linearGradient><stop offset="0"/><stop offset="1" stop-opacity=".649"/></linearGradient><radialGradient xlink:href="#b" id="g" gradientUnits="userSpaceOnUse" gradientTransform="matrix(1.257 -.777 .337 .536 -221.202 359.243)" cx="168.025" cy="509.476" fx="168.025" fy="509.476" r="81.903"/><linearGradient id="b"><stop offset="0" stop-color="#fff" stop-opacity=".435"/><stop offset="1" stop-opacity="0"/></linearGradient><filter color-interpolation-filters="sRGB" id="h" x="-.331" width="1.661" y="-.164" height="1.329"><feGaussianBlur stdDeviation="14.131"/></filter><radialGradient xlink:href="#c" id="i" gradientUnits="userSpaceOnUse" gradientTransform="matrix(1.257 -.777 .337 .536 -221.202 359.243)" cx="168.025" cy="509.476" fx="168.025" fy="509.476" r="81.903"/><linearGradient id="c"><stop offset="0" stop-color="#fff" stop-opacity=".489"/><stop offset="1" stop-opacity="0"/></linearGradient><filter color-interpolation-filters="sRGB" id="j" x="-.331" width="1.661" y="-.164" height="1.329"><feGaussianBlur stdDeviation="14.131"/></filter><radialGradient xlink:href="#d" id="k" gradientUnits="userSpaceOnUse" gradientTransform="matrix(1.257 -.777 .337 .536 -221.202 359.243)" cx="168.025" cy="509.476" fx="168.025" fy="509.476" r="81.903"/><linearGradient id="d"><stop offset="0" stop-color="#fff" stop-opacity=".237"/><stop offset="1" stop-opacity="0"/></linearGradient><filter color-interpolation-filters="sRGB" id="l" x="-.331" width="1.661" y="-.164" height="1.329"><feGaussianBlur stdDeviation="14.131"/></filter></defs><g stroke="#000"><path d="M166.837 235.548c0 3.777-3.087 6.87-6.87 6.87H7.11c-3.774 0-6.86-3.093-6.86-6.87V7.12C.25 3.343 3.336.25 7.11.25h152.856c3.784 0 6.87 3.093 6.87 6.87v228.428z" fill="#fff" stroke-width=".5"/></g><text style="line-height:125%" x="6.246" y="28.013" font-size="32" letter-spacing="0" word-spacing="0" font-family="Bitstream Vera Sans"><tspan x="6.246" y="28.013" style="-inkscape-font-specification:Arial" font-family="Arial">A</tspan></text><text style="line-height:125%" x="-160.908" y="-215.097" transform="scale(-1)" font-size="32" letter-spacing="0" word-spacing="0" font-family="Bitstream Vera Sans"><tspan x="-160.908" y="-215.097" style="-inkscape-font-specification:Arial" font-family="Arial">A</tspan></text><g><g transform="matrix(6.319 0 0 5.778 84.06 120.244)" fill="url(#e)"><path d="M7.99 3.103C7.746-.954.24-8.59 0-10.5-.242-8.59-7.747-.955-7.99 3.103-8.157 5.97-6.293 7.16-4.6 7.16c1.836-.022 3.352-2.8 3.874-3.34.242.715-1.603 6.68-2.18 6.68h5.812c-.576 0-2.42-5.965-2.18-6.68.458.495 1.798 3.257 3.875 3.34 1.695 0 3.558-1.19 3.39-4.057z" fill="url(#f)"/></g><path transform="matrix(.327 -.215 .268 .314 -145.833 12.493)" d="M122.357 574.383s-13.123-65.067 17.8-92.974c34.762-31.37 150.113-71.196 150.113-71.196s-81.652 84.604-110.112 108.338c-27.21 22.692-57.8 55.83-57.8 55.83z" fill="url(#g)" filter="url(#h)"/><path transform="matrix(.496 -.025 .224 .576 -137.597 -172.671)" d="M122.357 574.383s-13.123-65.067 17.8-92.974c34.762-31.37 150.113-71.196 150.113-71.196s-81.652 84.604-110.112 108.338c-27.21 22.692-57.8 55.83-57.8 55.83z" fill="url(#i)" filter="url(#j)"/><path transform="matrix(.387 -.061 .114 .397 -47.701 -97.672)" d="M122.357 574.383s-13.123-65.067 17.8-92.974c34.762-31.37 150.113-71.196 150.113-71.196s-81.652 84.604-110.112 108.338c-27.21 22.692-57.8 55.83-57.8 55.83z" fill="url(#k)" filter="url(#l)"/><path d="M14.054 36.61v169.67h134.49V36.61H14.055zm69.862 22.885c1.526 11.013 48.853 55.045 50.38 78.44 1.065 16.536-10.68 23.385-21.364 23.39-13.1-.478-21.553-16.402-24.436-19.264-1.526 4.13 10.11 38.53 13.742 38.53H65.594c3.633 0 15.268-34.4 13.74-38.53-3.292 3.116-12.854 19.142-24.428 19.266-10.69 0-22.44-6.855-21.375-23.392 1.527-23.4 48.86-67.432 50.386-78.44z" fill="#fffeff"/></g><g><path d="M28.98 49.346c-.364-5.596-11.686-16.128-12.05-18.763C16.563 33.216 5.24 43.75 4.876 49.346c-.255 3.956 2.557 5.596 5.114 5.596 2.77-.03 5.056-3.863 5.844-4.608.365.987-2.418 9.216-3.287 9.216h8.766c-.87 0-3.652-8.23-3.287-9.216.69.684 2.71 4.493 5.844 4.608 2.556 0 5.366-1.64 5.11-5.596z"/></g><g><path d="M138.173 193.764c.365 5.596 11.687 16.128 12.052 18.763.365-2.633 11.687-13.166 12.052-18.763.255-3.956-2.557-5.596-5.114-5.596-2.77.03-5.055 3.863-5.843 4.608-.365-.987 2.418-9.216 3.287-9.216h-8.766c.87 0 3.653 8.23 3.288 9.216-.69-.684-2.71-4.493-5.844-4.608-2.556 0-5.366 1.64-5.11 5.596z"/></g></svg>