<svg xmlns="http://www.w3.org/2000/svg" xmlns:xlink="http://www.w3.org/1999/xlink" width="167.087pt" height="242.667pt" viewBox="0 0 167.0869141 242.6669922"><defs><radialGradient xlink:href="#a" id="e" cx="48.231" cy="18.138" fx="48.231" fy="18.138" r="9.5" gradientUnits="userSpaceOnUse" gradientTransform="matrix(-1.561 .018 -.027 -2.291 123.984 58.809)"/><linearGradient id="a"><stop offset="0"/><stop offset="1" stop-opacity=".656"/></linearGradient><radialGradient xlink:href="#b" id="f" cx="171.487" cy="511.223" fx="171.487" fy="511.223" r="81.903" gradientTransform="matrix(1.153 -.674 .395 .675 -233.633 270.401)" gradientUnits="userSpaceOnUse"/><linearGradient id="b"><stop offset="0" stop-color="#fff" stop-opacity=".534"/><stop offset="1" stop-opacity="0"/></linearGradient><filter color-interpolation-filters="sRGB" id="g" x="-.139" width="1.279" y="-.162" height="1.325"><feGaussianBlur stdDeviation="9.511"/></filter><radialGradient r="81.903" fy="511.223" fx="171.487" cy="511.223" cx="171.487" gradientTransform="matrix(1.153 -.674 .395 .675 -233.633 270.401)" gradientUnits="userSpaceOnUse" id="h" xlink:href="#c"/><linearGradient id="c"><stop offset="0" stop-color="#fff" stop-opacity=".519"/><stop offset="1" stop-opacity="0"/></linearGradient><filter color-interpolation-filters="sRGB" id="i" x="-.139" width="1.279" y="-.162" height="1.325"><feGaussianBlur stdDeviation="9.511"/></filter><radialGradient r="81.903" fy="461.841" fx="181.694" cy="461.841" cx="181.694" gradientTransform="matrix(1.153 -.674 .395 .675 -233.633 270.401)" gradientUnits="userSpaceOnUse" id="j" xlink:href="#d"/><linearGradient id="d"><stop offset="0" stop-color="#fff" stop-opacity=".702"/><stop offset="1" stop-opacity="0"/></linearGradient><filter color-interpolation-filters="sRGB" id="k" x="-.139" width="1.279" y="-.162" height="1.325"><feGaussianBlur stdDeviation="9.511"/></filter></defs><g stroke="#000"><path d="M166.837 235.548c0 3.777-3.087 6.87-6.87 6.87H7.11c-3.774 0-6.86-3.093-6.86-6.87V7.12C.25 3.343 3.336.25 7.11.25h152.856c3.784 0 6.87 3.093 6.87 6.87v228.428z" fill="#fff" stroke-width=".5"/></g><text style="line-height:125%" x="5.111" y="27.548" font-size="32" letter-spacing="0" word-spacing="0" font-family="Bitstream Vera Sans"><tspan x="5.111" y="27.548" style="-inkscape-font-specification:Arial" font-family="Arial">Q</tspan></text><g><g><path d="M50.29 22.698s2.376-1.9 2.376-4.534c0-1.542-1.37-4.102-4.534-4.102-3.165 0-4.534 2.56-4.534 4.102 0 2.634 2.375 4.534 2.375 4.534-2.638-2.055-7.34-.652-7.34 3.455 0 2.056 1.68 4.318 4.317 4.318 3.165 0 4.534-3.454 4.534-3.454s.402 3.938-1.943 6.046h5.183c-2.345-2.107-1.943-6.046-1.943-6.046s1.37 3.455 4.534 3.455c2.64 0 4.318-2.262 4.318-4.317 0-4.107-4.703-5.51-7.34-3.455z" fill="url(#e)" transform="matrix(5.968 0 0 5.968 -203.626 -22.087)"/></g><path transform="matrix(.228 0 0 .249 1.177 -6.423)" d="M117.3 604.266s-8.066-94.95 22.858-122.857c34.76-31.37 140-11.43 140-11.43s-71.54 24.838-100 48.572c-27.21 22.692-62.857 85.714-62.857 85.714z" fill="url(#f)" filter="url(#g)"/><path transform="matrix(.228 0 0 .249 33.025 -51.934)" d="M117.3 604.266s-8.066-94.95 22.858-122.857c34.76-31.37 140-11.43 140-11.43s-71.54 24.838-100 48.572c-27.21 22.692-62.857 85.714-62.857 85.714z" fill="url(#h)" filter="url(#i)"/><path transform="matrix(.235 .145 -.173 .282 159.122 -46.332)" d="M117.3 604.266s-8.066-94.95 22.858-122.857c34.76-31.37 140-11.43 140-11.43s-71.54 24.838-100 48.572c-27.21 22.692-62.857 85.714-62.857 85.714z" fill="url(#j)" filter="url(#k)"/><path d="M14.716 41.668v151.37h137.532V41.667H14.716zm68.91 20.125c18.902 0 27.083 15.29 27.083 24.5 0 15.73-14.186 27.075-14.186 27.075 15.754-12.273 43.838-3.893 43.838 20.634 0 12.272-10.027 25.787-25.788 25.787-18.9 0-27.076-20.635-27.076-20.635S85.096 162.68 99.1 175.263H68.153c14.004-12.59 11.608-36.108 11.608-36.108s-8.173 20.634-27.075 20.634c-15.754 0-25.787-13.51-25.787-25.788 0-24.527 28.084-32.907 43.838-20.634 0 0-14.185-11.346-14.185-27.076 0-9.203 8.175-24.5 27.077-24.5z" fill="#fffeff"/></g><g><path d="M20.69 43.74s3.53-2.823 3.53-6.736c0-2.29-2.035-6.094-6.737-6.094s-6.736 3.804-6.736 6.094c0 3.913 3.53 6.736 3.53 6.736-3.92-3.053-10.907-.97-10.907 5.133 0 3.054 2.496 6.415 6.415 6.415 4.702 0 6.736-5.133 6.736-5.133s.598 5.85-2.886 8.982h7.7c-3.485-3.13-2.888-8.982-2.888-8.982s2.034 5.133 6.736 5.133c3.92 0 6.415-3.362 6.415-6.415 0-6.102-6.987-8.186-10.906-5.133z"/></g><text style="line-height:125%" x="-162.064" y="-214.467" transform="scale(-1)" font-size="32" letter-spacing="0" word-spacing="0" font-family="Bitstream Vera Sans"><tspan x="-162.064" y="-214.467" style="-inkscape-font-specification:Arial" font-family="Arial">Q</tspan></text><g><path d="M146.484 198.74s-3.53 2.823-3.53 6.736c0 2.29 2.035 6.094 6.737 6.094 4.703 0 6.737-3.804 6.737-6.094 0-3.913-3.528-6.736-3.528-6.736 3.918 3.053 10.905.97 10.905-5.133 0-3.054-2.496-6.415-6.415-6.415-4.702 0-6.736 5.133-6.736 5.133s-.597-5.85 2.886-8.982h-7.698c3.484 3.13 2.886 8.982 2.886 8.982s-2.033-5.133-6.736-5.133c-3.92 0-6.415 3.362-6.415 6.415 0 6.102 6.987 8.186 10.907 5.133z"/></g></svg>